<?xml version="1.0" encoding="UTF-8" standalone="no"?><svg xmlns="http://www.w3.org/2000/svg" xmlns:xlink="http://www.w3.org/1999/xlink" contentScriptType="application/ecmascript" contentStyleType="text/css" height="828px" preserveAspectRatio="none" style="width:1866px;height:828px;background:#00000000;" version="1.1" viewBox="0 0 1866 828" width="1866px" zoomAndPan="magnify"><defs/><g><rect height="676" style="stroke:#708090;stroke-width:3.0;fill:none;" width="1698" x="157" y="14"/><!--MD5=[77349be1bd27b81b697a0f9b3aded3c8]
cluster infrastructure--><polygon points="501,78,701,78,715,123.5999,1791,123.5999,1791,626,501,626,501,78" style="stroke:#708090;stroke-width:3.0;fill:none;"/><line style="stroke:#708090;stroke-width:3.0;fill:none;" x1="501" x2="715" y1="123.5999" y2="123.5999"/><text fill="#708090" font-family="Exo 2" font-size="28" font-weight="bold" lengthAdjust="spacing" textLength="188" x="509" y="110.2799">infrastructure</text><!--MD5=[a17f76d92a579d1a1e67299d1a2f9f08]
cluster example--><polygon points="1237,180,1363,180,1377,225.5999,1727,225.5999,1727,356,1237,356,1237,180" style="stroke:#708090;stroke-width:3.0;fill:none;"/><line style="stroke:#708090;stroke-width:3.0;fill:none;" x1="1237" x2="1377" y1="225.5999" y2="225.5999"/><text fill="#708090" font-family="Exo 2" font-size="28" font-weight="bold" lengthAdjust="spacing" textLength="114" x="1245" y="212.2799">example</text><!--MD5=[95392cdeb1b48bf061885ef9957907a3]
entity swaymanager--><polygon points="189,494,209,474,453,474,453,547.5999,433,567.5999,189,567.5999,189,494" style="stroke:#708090;stroke-width:3.0;fill:none;"/><line style="stroke:#708090;stroke-width:3.0;fill:none;" x1="433" x2="453" y1="494" y2="474"/><line style="stroke:#708090;stroke-width:3.0;fill:none;" x1="189" x2="433" y1="494" y2="494"/><line style="stroke:#708090;stroke-width:3.0;fill:none;" x1="433" x2="433" y1="494" y2="567.5999"/><text fill="#708090" font-family="Exo 2" font-size="28" lengthAdjust="spacing" textLength="184" x="219" y="541.9719">swaymanager</text><!--MD5=[fb005de1c6cbfeb3c47b9f1813e2e975]
entity mariadb--><path d="M248,261 C248,241 321,241 321,241 C321,241 394,241 394,261 L394,312.5999 C394,332.5999 321,332.5999 321,332.5999 C321,332.5999 248,332.5999 248,312.5999 L248,261 " style="stroke:#708090;stroke-width:3.0;fill:none;"/><path d="M248,261 C248,281 321,281 321,281 C321,281 394,281 394,261 " fill="none" style="stroke:#708090;stroke-width:3.0;"/><text fill="#708090" font-family="Exo 2" font-size="28" lengthAdjust="spacing" textLength="106" x="268" y="316.9719">mariadb</text><!--MD5=[5e3976dea897e9bf7034cad640fa3230]
entity _traefik--><polygon points="587,230,679,230,693,272,767,272,767,343.1997,587,343.1997,587,230" style="stroke:#708090;stroke-width:3.0;fill:none;"/><line style="stroke:#708090;stroke-width:3.0;fill:none;" x1="587" x2="693" y1="272" y2="272"/><text fill="#708090" font-family="Exo 2" font-size="28" lengthAdjust="spacing" textLength="96" x="607" y="313.9719">_traefik</text><!--MD5=[9b9a51ab13fe46cc218e888d7ed128f3]
entity lists--><polygon points="837,230,929,230,943,272,973,272,973,343.1997,837,343.1997,837,230" style="stroke:#708090;stroke-width:3.0;fill:none;"/><line style="stroke:#708090;stroke-width:3.0;fill:none;" x1="837" x2="943" y1="272" y2="272"/><text fill="#708090" font-family="Exo 2" font-size="28" lengthAdjust="spacing" textLength="52" x="857" y="313.9719">lists</text><!--MD5=[75b734d1db3ce9d09c7f82392295d704]
entity home--><polygon points="1043,230,1135,230,1149,272,1199,272,1199,343.1997,1043,343.1997,1043,230" style="stroke:#708090;stroke-width:3.0;fill:none;"/><line style="stroke:#708090;stroke-width:3.0;fill:none;" x1="1043" x2="1149" y1="272" y2="272"/><text fill="#708090" font-family="Exo 2" font-size="28" lengthAdjust="spacing" textLength="72" x="1063" y="313.9719">home</text><!--MD5=[57a5b41ed6b3ba96fe9b4a740eb3fdc7]
entity docs--><polygon points="605,464,697,464,711,506,749,506,749,577.1997,605,577.1997,605,464" style="stroke:#708090;stroke-width:3.0;fill:none;"/><line style="stroke:#708090;stroke-width:3.0;fill:none;" x1="605" x2="711" y1="506" y2="506"/><text fill="#708090" font-family="Exo 2" font-size="28" lengthAdjust="spacing" textLength="60" x="625" y="547.9719">docs</text><!--MD5=[60e40abdec2fcbb77c415fabbc881ea5]
entity wiki--><polygon points="820,464,912,464,926,506,954,506,954,577.1997,820,577.1997,820,464" style="stroke:#708090;stroke-width:3.0;fill:none;"/><line style="stroke:#708090;stroke-width:3.0;fill:none;" x1="820" x2="926" y1="506" y2="506"/><text fill="#708090" font-family="Exo 2" font-size="28" lengthAdjust="spacing" textLength="50" x="840" y="547.9719">wiki</text><!--MD5=[b58bf695bc378620cff659d464060a87]
entity stack.yml--><polygon points="1535,250,1535,323.5999,1695,323.5999,1695,270,1675,250,1535,250" style="stroke:#708090;stroke-width:3.0;fill:none;"/><path d="M1675,250 L1675,270 L1695,270 " style="stroke:#708090;stroke-width:3.0;fill:none;"/><text fill="#708090" font-family="Exo 2" font-size="28" lengthAdjust="spacing" textLength="120" x="1555" y="297.9719">stack.yml</text><!--MD5=[808032679d84cd872dc6b31fcd862d50]
entity example.cfg--><polygon points="1269,250,1269,323.5999,1465,323.5999,1465,270,1445,250,1269,250" style="stroke:#708090;stroke-width:3.0;fill:none;"/><path d="M1445,250 L1445,270 L1465,270 " style="stroke:#708090;stroke-width:3.0;fill:none;"/><text fill="#708090" font-family="Exo 2" font-size="28" lengthAdjust="spacing" textLength="156" x="1289" y="297.9719">example.cfg</text><!--MD5=[a1bd5a90179d42d923c30ac7d398b0b5]
entity swayworker1--><polygon points="32,742,52,722,286,722,286,795.5999,266,815.5999,32,815.5999,32,742" style="stroke:#708090;stroke-width:3.0;fill:none;"/><line style="stroke:#708090;stroke-width:3.0;fill:none;" x1="266" x2="286" y1="742" y2="722"/><line style="stroke:#708090;stroke-width:3.0;fill:none;" x1="32" x2="266" y1="742" y2="742"/><line style="stroke:#708090;stroke-width:3.0;fill:none;" x1="266" x2="266" y1="742" y2="815.5999"/><text fill="#708090" font-family="Exo 2" font-size="28" lengthAdjust="spacing" textLength="174" x="62" y="789.9719">swayworker1</text><!--MD5=[71cadac897eebd081bc794560b3aaf07]
entity swayworker2--><polygon points="356,742,376,722,614,722,614,795.5999,594,815.5999,356,815.5999,356,742" style="stroke:#708090;stroke-width:3.0;fill:none;"/><line style="stroke:#708090;stroke-width:3.0;fill:none;" x1="594" x2="614" y1="742" y2="722"/><line style="stroke:#708090;stroke-width:3.0;fill:none;" x1="356" x2="594" y1="742" y2="742"/><line style="stroke:#708090;stroke-width:3.0;fill:none;" x1="594" x2="594" y1="742" y2="815.5999"/><text fill="#708090" font-family="Exo 2" font-size="28" lengthAdjust="spacing" textLength="178" x="386" y="789.9719">swayworker2</text><!--MD5=[d1e1d13f45ff083d3d63431064cdded4]
link infrastructure to swaymanager--><path d="M500.7373,385.6513 C500.3158,386.2873 499.8904,386.9212 499.4613,387.5531 C496.0286,392.6084 492.3566,397.5338 488.4869,402.3263 C480.7475,411.9113 472.2175,420.965 463.23,429.465 C445.255,446.465 425.45,461.25 406.48,473.64 " fill="none" id="infrastructure-swaymanager" style="stroke:#708090;stroke-width:2.0;"/><!--MD5=[98c66a4ded0d5eda81b2fba8db53bf2c]
link mariadb to swaymanager--><path d="M321,333.34 C321,373.56 321,432.56 321,473.22 " fill="none" id="mariadb-swaymanager" style="stroke:#708090;stroke-width:2.0;"/><!--MD5=[5813bdc8b4b60575a672be4825f109f9]
link swaymanager to swayworker1--><path d="M290.9,568.32 C261.82,612.14 217.98,678.18 188.94,721.92 " fill="none" id="swaymanager-swayworker1" style="stroke:#708090;stroke-width:2.0;"/><!--MD5=[c87865407862f1f86d3d286d7916342d]
link swaymanager to swayworker2--><path d="M351.46,568.32 C380.92,612.14 425.3,678.18 454.7,721.92 " fill="none" id="swaymanager-swayworker2" style="stroke:#708090;stroke-width:2.0;"/><!--MD5=[423f7c3133b37cda106777754c6fa008]
link _traefik to lists--><!--MD5=[b8583bfa4f602dc8baa5fb052a67fb78]
link lists to home--><!--MD5=[6bbad38f660c1fd9fdf079ffb620e935]
link _traefik to docs--><!--MD5=[c3f667e2f3582399efcee5dc440a32b3]
link docs to wiki--><!--MD5=[0c758992a5780f063a054327d1199c73]
@startuml
!include style.puml
rectangle  {
    node swaymanager
    database mariadb

    folder infrastructure {
        folder example {
            file stack.yml
            file example.cfg
        }
        folder _traefik
        folder lists
        folder home
        folder docs
        folder wiki

    }

    infrastructure - - swaymanager
    mariadb - - swaymanager

}
node swayworker1
node swayworker2

swaymanager - - swayworker1
swaymanager - - swayworker2



@enduml

@startuml
skinparam backgroundColor transparent
skinparam defaultFontName "Exo 2"
skinparam shadowing false
skinparam ArrowColor slategrey

skinparam actor {
    BorderColor slategrey
    BackgroundColor transparent
    FontColor slategrey
}

skinparam agent {
    BorderColor slategrey
    BackgroundColor transparent
    FontColor slategrey
}

skinparam artifact {
    BorderColor slategrey
    BackgroundColor transparent
    FontColor slategrey
}
skinparam boundary {
    BorderColor slategrey
    BackgroundColor transparent
    FontColor slategrey
}
skinparam card {
    BorderColor slategrey
    BackgroundColor transparent
    FontColor slategrey
}
skinparam circle {
    BorderColor slategrey
    BackgroundColor transparent
    FontColor slategrey
}
skinparam cloud {
    BorderColor slategrey
    BackgroundColor transparent
    FontColor slategrey
}
skinparam collections {
    BorderColor slategrey
    BackgroundColor transparent
    FontColor slategrey
}
skinparam component {
    BorderColor slategrey
    BackgroundColor transparent
    FontColor slategrey
}
skinparam control {
    BorderColor slategrey
    BackgroundColor transparent
    FontColor slategrey
}
skinparam database {
    BorderColor slategrey
    BackgroundColor transparent
    FontColor slategrey
}
skinparam entity {
    BorderColor slategrey
    BackgroundColor transparent
    FontColor slategrey
}
skinparam file {
    BorderColor slategrey
    BackgroundColor transparent
    FontColor slategrey
}
skinparam folder {
    BorderColor slategrey
    BackgroundColor transparent
    FontColor slategrey
}
skinparam frame {
    BorderColor slategrey
    BackgroundColor transparent
    FontColor slategrey
}
skinparam interface {
    BorderColor slategrey
    BackgroundColor transparent
    FontColor slategrey
}
skinparam label {
    BorderColor slategrey
    BackgroundColor transparent
    FontColor slategrey
}
skinparam node {
    BorderColor slategrey
    BackgroundColor transparent
    FontColor slategrey
}
skinparam package {
    BorderColor slategrey
    BackgroundColor transparent
    FontColor slategrey
}
skinparam queue {
    BorderColor slategrey
    BackgroundColor transparent
    FontColor slategrey
}
skinparam rectangle {
    BorderColor slategrey
    BackgroundColor transparent
    FontColor slategrey
}
skinparam stack {
    BorderColor slategrey
    BackgroundColor transparent
    FontColor slategrey
}
skinparam storage {
    BorderColor slategrey
    BackgroundColor transparent
    FontColor slategrey
}
skinparam usecase {
    BorderColor slategrey
    BackgroundColor transparent
    FontColor slategrey
}
rectangle  {
    node swaymanager
    database mariadb

    folder infrastructure {
        folder example {
            file stack.yml
            file example.cfg
        }
        folder _traefik
        folder lists
        folder home
        folder docs
        folder wiki

    }

    infrastructure - - swaymanager
    mariadb - - swaymanager

}
node swayworker1
node swayworker2

swaymanager - - swayworker1
swaymanager - - swayworker2



@enduml

PlantUML version 1.2021.01(Tue Feb 02 01:55:08 CST 2021)
(GPL source distribution)
Java Runtime: OpenJDK Runtime Environment
JVM: OpenJDK 64-Bit Server VM
Default Encoding: UTF-8
Language: en
Country: US
--></g></svg>